<svg width="26" height="26" viewBox="0 0 26 26" fill="none" xmlns="http://www.w3.org/2000/svg">
<path d="M22.462 11.9017L25.8149 17.3755L15.2805 23.8779C14.2353 24.5221 13.149 24.9679 12.0206 25.2134C10.8922 25.46 9.76612 25.4474 8.64378 25.179C7.52144 24.9105 6.58555 24.4789 5.833 23.8854C4.78656 23.0627 3.8072 21.9055 2.89261 20.4117C2.36289 19.5485 1.8451 18.5688 1.34031 17.4726C0.835605 16.3775 0.551369 15.3763 0.488755 14.47C0.427119 13.5626 0.550669 12.6204 0.860646 11.6456C1.17062 10.6707 1.61127 9.86085 2.18188 9.22038C3.09949 8.1866 3.99135 7.40196 4.85961 6.86629L15.3951 0.363822L18.7468 5.83663L7.96078 12.4936C6.99749 13.0889 6.40866 13.8215 6.19446 14.6935C5.98124 15.5643 6.16684 16.4766 6.74904 17.4294C7.3284 18.3738 8.04939 18.9494 8.91211 19.1574C9.77474 19.3643 10.6974 19.1639 11.6771 18.5597L22.462 11.9017Z" fill="#427BBF"/>
</svg>
