<svg width="31" height="31" viewBox="0 0 31 31" fill="none" xmlns="http://www.w3.org/2000/svg">
<path d="M16.6773 14.302C18.6003 13.9407 19.9146 13.3241 20.6211 12.4518C21.3274 11.5786 21.5651 10.5285 21.3341 9.29736C21.0962 8.03288 20.5011 7.13206 19.5482 6.59201C18.5945 6.05319 17.0523 5.98444 14.9214 6.38479C13.1276 6.72188 11.8854 7.32956 11.194 8.20812C10.5026 9.08667 10.2735 10.1459 10.5054 11.384C10.728 12.5718 11.3282 13.4454 12.3033 14.0064C13.2787 14.5684 14.7367 14.6669 16.6773 14.302ZM17.7566 20.1932C14.6458 20.777 12.063 20.3666 10.0032 18.9592C7.94541 17.5512 6.6269 15.3005 6.04603 12.2086C5.45029 9.03782 5.84288 6.43491 7.22383 4.39984C8.60381 2.36504 10.8278 1.05886 13.8943 0.483745C16.1198 0.0653382 18.0175 0.0969517 19.5831 0.578652C21.1479 1.06061 22.4605 1.93507 23.519 3.20254C24.5776 4.47002 25.3057 6.16233 25.7024 8.27561C26.1064 10.4242 26.0972 12.2662 25.6781 13.8027C25.258 15.3395 24.3887 16.6828 23.0723 17.8373C21.7545 18.99 19.9833 19.7755 17.7566 20.1932ZM1.34824 13.1984L0.493825 8.6507L5.16862 12.1172L5.64377 14.6515L1.34824 13.1984Z" fill="#427BBF"/>
</svg>

