<svg width="28" height="24" viewBox="0 0 28 24" fill="none" xmlns="http://www.w3.org/2000/svg">
<path d="M10.3126 12.465L11.7091 10.3605C11.8594 10.1329 12.0784 9.64372 12.3649 8.89214C12.5183 8.51776 12.529 8.13602 12.3957 7.74622C12.2634 7.35616 12.0206 7.04433 11.6682 6.81047C11.1451 6.46493 10.6357 6.36415 10.1375 6.50988C9.63921 6.65561 9.0878 7.18305 8.48375 8.09413L7.02924 10.2876L10.3126 12.465ZM16.5958 23.8509L0.442122 13.1379L5.96027 4.81802C6.98328 3.2752 7.89754 2.18486 8.70253 1.54506C9.50823 0.904043 10.4337 0.571541 11.4812 0.548005C12.5295 0.523245 13.5677 0.852071 14.596 1.53448C15.4919 2.12811 16.139 2.8328 16.5357 3.64591C16.9323 4.45903 17.1107 5.33468 17.0703 6.27093C17.0456 6.86757 16.8703 7.59355 16.5472 8.44809C17.1397 7.98523 17.6262 7.68324 18.0037 7.54289C18.2578 7.44799 18.7184 7.37031 19.383 7.30844C20.0481 7.2485 20.5377 7.23657 20.8502 7.27509L27.1344 7.96226L23.3941 13.6026L16.6878 12.9973C15.825 12.9104 15.21 12.9372 14.8438 13.0735C14.3546 13.2686 13.959 13.5928 13.6574 14.0483L13.3646 14.4899L19.9222 18.8378L16.5958 23.8509Z" fill="#427BBF"/>
</svg>
