<svg width="22" height="22" viewBox="0 0 22 22" fill="none" xmlns="http://www.w3.org/2000/svg">
<path d="M11.2286 13.5989L10.2586 9.68364L19.2428 7.45939L21.2295 15.4795C19.8011 17.0779 18.4774 18.2527 17.2607 19.0039C16.0436 19.7542 14.5281 20.3547 12.7144 20.8033C10.4804 21.3576 8.56532 21.4283 6.97022 21.0149C5.37418 20.6019 4.00185 19.739 2.85469 18.4246C1.7079 17.111 0.892296 15.4775 0.409384 13.5276C-0.0999705 11.474 -0.118991 9.58204 0.352159 7.85396C0.822929 6.12497 1.77746 4.66521 3.21629 3.47339C4.34073 2.55035 5.98088 1.82178 8.1373 1.28636C10.2169 0.771738 11.8183 0.574834 12.943 0.69619C14.0673 0.816622 15.0672 1.18933 15.9433 1.813C16.8199 2.43537 17.5791 3.31143 18.2224 4.44172L12.8626 6.83188C12.4546 6.17899 11.9296 5.73317 11.2837 5.4928C10.6381 5.25335 9.88881 5.24035 9.03382 5.45139C7.75812 5.76734 6.85228 6.46209 6.31408 7.53545C5.77642 8.60752 5.74482 10.1029 6.21942 12.0194C6.72416 14.0566 7.46711 15.4162 8.44958 16.0988C9.43112 16.7818 10.6068 16.9536 11.9757 16.6144C12.6261 16.4529 13.2232 16.2063 13.7663 15.8705C14.3111 15.5361 14.9066 15.049 15.5557 14.4058L15.1174 12.6354L11.2286 13.5989Z" fill="#427BBF"/>
</svg>
