<svg width="26" height="25" viewBox="0 0 26 25" fill="none" xmlns="http://www.w3.org/2000/svg">
<path d="M8.96226 22.6448L13.0896 17.3635C13.9948 17.9787 14.8084 18.3101 15.5277 18.3557C16.6938 18.4279 17.7229 17.9605 18.6164 16.9555C19.2819 16.2053 19.6208 15.4695 19.6309 14.7497C19.6397 14.029 19.4137 13.4626 18.9518 13.0496C18.5116 12.6562 17.9469 12.4984 17.2575 12.5739C16.5659 12.6509 15.4421 13.2558 13.8837 14.3889C11.3214 16.2325 9.17577 17.2627 7.44819 17.4802C5.71371 17.7051 4.1834 17.2257 2.85681 16.0396C1.98625 15.2606 1.38817 14.2706 1.0642 13.0717C0.73885 11.8719 0.806768 10.5654 1.26658 9.15136C1.72639 7.73732 2.74205 6.14489 4.31561 4.37244C6.24578 2.19743 8.11924 0.900057 9.93829 0.479855C11.756 0.0587266 13.6396 0.525695 15.5902 1.88053L11.4796 7.095C10.6002 6.54418 9.8003 6.32513 9.07972 6.43669C8.35775 6.54733 7.66828 6.97509 7.00831 7.71696C6.46605 8.32886 6.18641 8.90432 6.16962 9.44451C6.15307 9.98584 6.33064 10.4216 6.70004 10.7523C6.96952 10.9937 7.326 11.0825 7.76738 11.0202C8.21172 10.973 8.94224 10.5718 9.95849 9.81453C12.4908 7.95766 14.4515 6.75804 15.8383 6.21612C17.2261 5.67282 18.494 5.50919 19.6444 5.72593C20.7934 5.94174 21.8307 6.46368 22.756 7.29061C23.8424 8.26299 24.5769 9.46086 24.9581 10.8845C25.3396 12.3092 25.2874 13.7744 24.7993 15.2815C24.3126 16.7895 23.337 18.3669 21.8738 20.0144C19.3055 22.909 16.9719 24.4161 14.8734 24.5381C12.7735 24.6593 10.804 24.0284 8.96226 22.6448Z" fill="#427BBF"/>
</svg>
