<svg width="21" height="20" viewBox="0 0 21 20" fill="none" xmlns="http://www.w3.org/2000/svg">
<path d="M12.8766 5.83197L14.8052 0.698484C16.2503 1.14666 17.4405 1.78222 18.3773 2.60354C19.3122 3.42553 19.9928 4.41242 20.4199 5.56705C20.8473 6.72263 21.0045 8.16552 20.8892 9.89862C20.7504 12.001 20.3314 13.6979 19.6334 14.9899C18.9345 16.2823 17.7849 17.3615 16.1828 18.2282C14.58 19.093 12.5791 19.4478 10.18 19.2895C6.98045 19.0776 4.57752 18.065 2.97142 16.2496C1.36533 14.4342 0.664849 11.9694 0.87031 8.85601C1.03136 6.4198 1.6506 4.53695 2.72614 3.20813C3.80357 1.87863 5.38433 0.943115 7.46998 0.399958L8.29637 5.75506C7.69554 5.90108 7.25135 6.06669 6.96537 6.25027C6.48635 6.55355 6.10708 6.94019 5.82877 7.40764C5.5514 7.87476 5.39209 8.40811 5.35145 9.00642C5.26263 10.3607 5.73931 11.434 6.78089 12.2275C7.55345 12.8261 8.80436 13.182 10.5352 13.297C12.6788 13.4381 14.1696 13.2098 15.0076 12.612C15.8462 12.0129 16.3039 11.1249 16.3814 9.94454C16.4577 8.80275 16.1933 7.91713 15.5897 7.28925C14.9864 6.6623 14.0817 6.1756 12.8766 5.83197Z" fill="#427BBF"/>
</svg>
