<svg width="24" height="26" viewBox="0 0 24 26" fill="none" xmlns="http://www.w3.org/2000/svg">
<path d="M16.2441 2.24709L23.2022 3.01297L21.7054 16.5063C21.5574 17.8444 21.2078 19.085 20.6602 20.2281C20.1125 21.3712 19.3461 22.3397 18.3587 23.1312C17.3724 23.925 16.3725 24.4467 15.3577 24.6997C13.9477 25.0554 12.2924 25.1285 10.3941 24.9192C9.29555 24.7988 8.1064 24.5893 6.82549 24.292C5.54457 23.9947 4.49213 23.5701 3.67176 23.0159C2.84905 22.4616 2.12444 21.7225 1.49438 20.7997C0.864359 19.8757 0.466423 18.9515 0.298228 18.027C0.0273666 16.5379 -0.0463844 15.238 0.0770177 14.1261L1.57498 0.63276L8.53187 1.3986L6.99882 15.2142C6.86281 16.448 7.09614 17.4512 7.70128 18.2202C8.30756 18.9905 9.21486 19.4419 10.4267 19.5745C11.6268 19.7078 12.606 19.4689 13.3652 18.8601C14.1222 18.25 14.572 17.3176 14.7111 16.0627L16.2441 2.24709Z" fill="#427BBF"/>
</svg>
