<svg width="25" height="25" viewBox="0 0 25 25" fill="none" xmlns="http://www.w3.org/2000/svg">
<path d="M7.99012 10.2549C6.97607 12.32 6.62876 13.9912 6.95067 15.2708C7.27134 16.5494 8.08914 17.5144 9.40395 18.1636C10.756 18.831 12.0192 18.9061 13.1936 18.389C14.3668 17.8719 15.5176 16.4685 16.6404 14.1814C17.5863 12.2563 17.8904 10.6603 17.5525 9.38969C17.217 8.11899 16.3865 7.15811 15.0608 6.50352C13.7929 5.87663 12.5519 5.82511 11.3414 6.3476C10.1298 6.86897 9.01267 8.17181 7.99012 10.2549ZM1.71118 7.11976C3.35122 3.78138 5.55303 1.63989 8.31891 0.694022C11.0837 -0.250617 14.1192 0.0940175 17.4243 1.72681C20.8147 3.4012 22.9761 5.60372 23.9134 8.33649C24.8484 11.0694 24.507 14.0821 22.8917 17.3733C21.7176 19.763 20.3545 21.5256 18.8022 22.6585C17.25 23.7927 15.5083 24.4114 13.576 24.5148C11.6448 24.617 9.54889 24.1108 7.28943 22.9949C4.99272 21.8608 3.27275 20.5541 2.12845 19.0771C0.98527 17.5988 0.337027 15.8342 0.182495 13.7823C0.0279621 11.7303 0.537135 9.50949 1.71118 7.11976Z" fill="#427BBF"/>
</svg>
